<!DOCTYPE svg PUBLIC "-//W3C//DTD SVG 20010904//EN" "http://www.w3.org/TR/2001/REC-SVG-20010904/DTD/svg10.dtd">
<svg version="1.0" xmlns="http://www.w3.org/2000/svg" width="1080px" height="480px" viewBox="0 0 10800 4800" preserveAspectRatio="xMidYMid meet">
<g id="layer101" fill="#1969ae" stroke="none">
<path d="M0 2400 l0 -2400 5400 0 5400 0 0 2400 0 2400 -5400 0 -5400 0 0 -2400z"/>
</g>
<g id="layer102" fill="#337ab7" stroke="none">
<path d="M0 2400 l0 -2400 5400 0 5400 0 0 2400 0 2400 -5400 0 -5400 0 0 -2400z m5053 43 c-45 -2 -122 -2 -170 0 -48 1 -11 3 82 3 94 0 133 -2 88 -3z m410 0 c-35 -2 -91 -2 -125 0 -35 2 -7 3 62 3 69 0 97 -1 63 -3z m505 0 c-82 -2 -214 -2 -295 0 -82 1 -15 3 147 3 162 0 229 -2 148 -3z m259 1 c-3 -3 -12 -4 -19 -1 -8 3 -5 6 6 6 11 1 17 -2 13 -5z m580 0 c-3 -3 -12 -4 -19 -1 -8 3 -5 6 6 6 11 1 17 -2 13 -5z m-1730 -381 c-4 -3 -10 -3 -14 0 -3 4 0 7 7 7 7 0 10 -3 7 -7z m1610 -315 c-3 -8 -6 -5 -6 6 -1 11 2 17 5 13 3 -3 4 -12 1 -19z m-229 -45 c-10 -2 -28 -2 -40 0 -13 2 -5 4 17 4 22 1 32 -1 23 -4z m590 0 c-10 -2 -28 -2 -40 0 -13 2 -5 4 17 4 22 1 32 -1 23 -4z"/>
</g>
<g id="layer103" fill="#e2dfde" stroke="none">
<path d="M3578 2429 c-36 -21 -19 -138 57 -394 19 -66 35 -125 35 -132 0 -25 -34 -13 -83 28 -43 37 -50 40 -63 27 -13 -13 -9 -21 40 -65 90 -83 201 -120 225 -75 9 18 8 24 -68 297 -54 195 -58 223 -37 231 11 4 34 -8 67 -36 45 -38 79 -47 79 -21 0 16 -112 110 -155 131 -46 22 -71 25 -97 9z"/>
<path d="M3772 1608 c-19 -19 -14 -76 8 -98 22 -22 69 -27 88 -8 20 20 14 72 -11 96 -26 24 -66 29 -85 10z"/>
</g>
<g id="layer104" fill="#d6e4f0" stroke="none">
<path d="M4666 3783 c-3 -3 -6 -44 -6 -90 l0 -83 34 0 c19 0 44 9 57 19 20 16 22 23 14 47 -7 19 -20 31 -43 38 -26 7 -32 14 -32 37 0 28 -12 44 -24 32z m78 -108 c6 -17 -19 -45 -40 -45 -9 0 -14 11 -14 30 0 25 4 30 24 30 13 0 26 -7 30 -15z"/>
<path d="M4800 3770 c-26 -26 -26 -74 0 -100 15 -15 31 -20 65 -18 l45 3 0 65 0 65 -45 3 c-34 2 -49 -2 -65 -18z m78 -12 c22 -22 14 -67 -13 -80 -46 -21 -86 40 -49 76 18 19 45 21 62 4z"/>
<path d="M4940 3723 c0 -65 1 -68 25 -69 27 -2 34 13 10 22 -10 4 -15 21 -15 54 0 27 -4 52 -10 55 -6 4 -10 -19 -10 -62z"/>
<path d="M5010 3770 c-11 -11 -20 -33 -20 -50 0 -65 79 -94 119 -44 35 45 28 54 -39 54 -48 0 -58 3 -54 15 9 23 43 28 70 10 32 -21 43 -12 19 15 -23 26 -69 26 -95 0z m90 -69 c0 -32 -71 -38 -84 -6 -4 12 4 15 39 15 25 0 45 -4 45 -9z"/>
<path d="M5140 3722 l0 -68 37 -1 c63 -2 73 9 73 78 0 38 -4 58 -10 54 -5 -3 -10 -28 -10 -55 0 -43 -10 -60 -35 -60 -17 0 -35 39 -35 76 0 24 -4 44 -10 44 -6 0 -10 -29 -10 -68z"/>
<path d="M5290 3735 c0 -42 -3 -55 -15 -55 -8 0 -15 -7 -15 -15 0 -8 7 -15 15 -15 8 0 15 -9 15 -20 0 -11 5 -20 10 -20 6 0 10 9 10 20 0 11 5 20 10 20 6 0 10 7 10 15 0 8 -4 15 -10 15 -5 0 -10 25 -10 55 0 30 -4 55 -10 55 -5 0 -10 -25 -10 -55z"/>
<path d="M5430 3710 c0 -64 -3 -80 -15 -80 -8 0 -15 -4 -15 -10 0 -5 20 -10 45 -10 25 0 45 5 45 10 0 6 -9 10 -20 10 -18 0 -20 7 -20 80 0 47 -4 80 -10 80 -6 0 -10 -33 -10 -80z"/>
<path d="M5500 3702 c0 -55 4 -92 10 -92 6 0 10 11 10 24 0 19 4 22 25 18 42 -8 65 22 65 85 0 29 -4 53 -10 53 -5 0 -10 -19 -10 -43 0 -91 -62 -105 -68 -16 -6 86 -22 65 -22 -29z"/>
<path d="M5641 3764 c-12 -15 -21 -34 -21 -44 0 -31 39 -70 71 -70 33 0 69 31 69 60 0 18 -7 20 -55 20 -56 0 -65 6 -43 28 16 16 38 15 59 -4 28 -25 47 -12 21 14 -31 31 -75 29 -101 -4z m84 -74 c-20 -23 -45 -26 -63 -8 -21 21 -13 28 35 28 45 0 46 0 28 -20z"/>
<path d="M5780 3725 l0 -70 31 -2 c17 -1 40 2 51 8 14 8 23 8 31 0 18 -18 55 -12 71 11 18 25 22 118 6 118 -5 0 -10 -19 -10 -43 0 -97 -62 -104 -68 -8 -4 62 -22 69 -22 8 0 -91 -62 -105 -68 -16 -5 75 -22 70 -22 -6z"/>
<path d="M6011 3764 c-12 -15 -21 -34 -21 -44 0 -31 39 -70 71 -70 33 0 69 31 69 60 0 18 -7 20 -55 20 -56 0 -65 6 -43 28 16 16 38 15 59 -4 28 -25 47 -12 21 14 -31 31 -75 29 -101 -4z m87 -66 c-8 -22 -37 -34 -55 -22 -33 21 -26 34 17 34 28 0 40 -4 38 -12z"/>
<path d="M3180 3172 l0 -108 61 -2 c52 -2 64 2 85 23 33 33 33 87 -2 122 -22 22 -32 25 -70 20 -43 -4 -44 -4 -44 24 0 19 -5 29 -15 29 -12 0 -15 -19 -15 -108z m118 22 c33 -23 30 -78 -4 -101 -24 -15 -29 -15 -53 -2 -35 19 -41 69 -12 98 25 25 39 26 69 5z"/>
<path d="M5650 3170 c0 -67 4 -110 10 -110 6 0 10 5 10 12 0 9 3 9 12 0 22 -22 82 -14 108 13 67 71 -15 180 -101 135 -17 -10 -19 -7 -19 25 0 19 -4 35 -10 35 -6 0 -10 -43 -10 -110z m120 20 c11 -11 20 -31 20 -45 0 -30 -32 -65 -59 -65 -21 0 -61 44 -61 67 0 19 45 63 65 63 8 0 24 -9 35 -20z"/>
<path d="M2830 3120 l0 -110 49 0 c42 0 53 4 70 26 27 35 26 59 -3 89 -24 24 -24 24 -5 55 21 34 24 50 9 50 -9 0 -55 -66 -66 -95 -4 -8 3 -15 17 -17 12 -2 27 -11 33 -20 17 -27 -4 -52 -48 -56 l-36 -3 0 95 c0 57 -4 96 -10 96 -6 0 -10 -43 -10 -110z"/>
<path d="M3012 3207 c-31 -33 -30 -96 1 -125 26 -24 85 -30 105 -10 9 9 12 9 12 0 0 -7 5 -12 10 -12 6 0 10 35 10 85 0 50 -4 85 -10 85 -5 0 -10 -5 -10 -12 0 -9 -3 -9 -12 0 -21 21 -82 14 -106 -11z m95 -19 c28 -26 30 -61 3 -88 -27 -27 -55 -25 -79 6 -28 36 -26 58 5 83 33 26 42 26 71 -1z"/>
<path d="M3370 3146 c0 -71 3 -86 15 -86 13 0 15 14 13 82 -2 54 -7 83 -15 86 -10 3 -13 -18 -13 -82z"/>
<path d="M3445 3205 c-53 -52 -18 -145 54 -145 20 0 42 5 49 12 9 9 12 4 12 -25 0 -26 4 -37 15 -37 12 0 15 18 15 104 0 100 -11 137 -30 106 -5 -9 -9 -9 -14 -1 -13 21 -75 13 -101 -14z m95 -15 c11 -11 20 -31 20 -45 0 -28 -32 -65 -55 -65 -9 0 -27 11 -41 25 -29 29 -26 58 8 88 26 22 43 22 68 -3z"/>
<path d="M3730 3136 c0 -89 -1 -95 -22 -98 -12 -2 -23 -9 -26 -15 -3 -10 13 -13 58 -13 45 0 61 3 58 13 -3 6 -14 13 -26 15 -21 3 -22 9 -22 98 0 56 -4 94 -10 94 -6 0 -10 -38 -10 -94z"/>
<path d="M3810 3120 c0 -67 4 -110 10 -110 6 0 10 13 10 29 0 28 1 28 44 24 37 -5 46 -2 60 18 20 29 23 153 4 147 -8 -3 -14 -28 -16 -66 -2 -48 -7 -64 -22 -72 -42 -22 -70 16 -70 96 0 24 -4 44 -10 44 -6 0 -10 -43 -10 -110z"/>
<path d="M3995 3205 c-31 -30 -33 -82 -4 -119 40 -51 149 -20 149 44 0 18 -6 20 -71 20 -61 0 -70 2 -67 17 2 10 15 24 30 32 25 14 29 14 57 -7 17 -12 33 -22 36 -22 12 0 4 21 -15 40 -29 29 -84 27 -115 -5z m105 -95 c-15 -29 -56 -36 -80 -15 -31 28 -24 35 35 35 52 0 55 -1 45 -20z"/>
<path d="M4160 3147 l0 -83 46 -2 c25 -1 55 3 66 9 14 8 23 8 31 0 20 -20 74 -13 91 11 20 28 23 152 4 146 -8 -3 -14 -28 -16 -65 -3 -71 -17 -88 -55 -74 -24 9 -26 16 -29 73 -4 78 -22 79 -26 1 -2 -40 -8 -62 -19 -70 -23 -17 -30 -16 -53 7 -15 15 -20 33 -20 75 0 30 -4 55 -10 55 -6 0 -10 -34 -10 -83z"/>
<path d="M4455 3205 c-54 -53 -16 -145 60 -145 41 0 85 36 85 70 0 18 -6 20 -71 20 -61 0 -70 2 -67 17 2 10 15 24 30 32 25 14 29 14 57 -7 35 -26 41 -27 41 -8 0 22 -40 46 -78 46 -22 0 -41 -8 -57 -25z m115 -84 c0 -13 -41 -41 -59 -41 -16 0 -51 28 -51 42 0 4 25 8 55 8 30 0 55 -4 55 -9z"/>
<path d="M4710 3120 l0 -110 56 0 c48 0 59 4 85 29 24 24 29 38 29 76 0 78 -42 115 -131 115 l-39 0 0 -110z m110 70 c25 -14 43 -71 31 -101 -13 -36 -33 -49 -77 -52 l-39 -2 -3 83 -3 82 36 0 c20 0 45 -4 55 -10z"/>
<path d="M4926 3209 c-35 -28 -37 -95 -3 -127 23 -22 68 -29 102 -16 16 6 45 54 45 74 0 6 -29 10 -75 10 -77 0 -84 4 -62 33 21 28 62 32 86 8 21 -21 41 -28 41 -13 0 5 -10 18 -23 30 -30 28 -76 28 -111 1z m104 -98 c-5 -11 -19 -23 -30 -26 -27 -9 -58 2 -70 26 -10 18 -7 19 50 19 57 0 60 -1 50 -19z"/>
<path d="M5101 3153 c-34 -86 -36 -93 -20 -93 6 0 22 27 37 60 l26 61 24 -61 c13 -33 30 -60 38 -60 8 0 14 3 13 8 -2 21 -66 156 -75 159 -6 2 -26 -31 -43 -74z"/>
<path d="M5245 3204 c-54 -59 -16 -144 64 -144 31 0 44 6 60 26 12 15 21 35 21 45 0 17 -8 19 -71 19 -61 0 -70 2 -67 17 2 10 15 24 30 32 25 14 29 14 58 -7 42 -31 62 -23 28 11 -37 37 -90 37 -123 1z m115 -81 c0 -13 -34 -43 -49 -43 -20 0 -61 27 -61 41 0 5 25 9 55 9 30 0 55 -3 55 -7z"/>
<path d="M5410 3121 c0 -93 2 -111 15 -111 13 0 15 16 13 107 -2 74 -7 108 -15 111 -10 3 -13 -23 -13 -107z"/>
<path d="M5485 3205 c-53 -52 -19 -145 52 -145 45 0 62 9 78 41 21 40 19 63 -11 98 -33 40 -83 43 -119 6z m95 -15 c11 -11 20 -31 20 -45 0 -30 -32 -65 -59 -65 -21 0 -61 44 -61 67 0 19 45 63 65 63 8 0 24 -9 35 -20z"/>
<path d="M5840 3147 l0 -83 46 -2 c25 -1 55 3 66 9 14 7 23 7 33 -1 8 -6 29 -10 47 -8 42 4 59 36 56 106 -4 74 -22 70 -26 -5 -2 -49 -7 -65 -22 -73 -42 -22 -70 16 -70 96 0 24 -4 44 -10 44 -6 0 -10 -26 -10 -59 0 -41 -5 -65 -16 -75 -19 -20 -24 -20 -52 0 -19 13 -22 24 -22 75 0 33 -4 59 -10 59 -6 0 -10 -34 -10 -83z"/>
<path d="M6135 3205 c-53 -52 -19 -145 52 -145 45 0 62 9 78 41 24 45 20 49 -55 49 -77 0 -92 15 -45 46 21 14 31 15 50 6 14 -7 25 -16 25 -22 0 -5 7 -10 15 -10 21 0 19 16 -7 40 -31 28 -83 26 -113 -5z m105 -95 c-20 -38 -100 -34 -100 5 0 11 13 15 55 15 52 0 55 -1 45 -20z"/>
<path d="M6300 3147 l0 -83 48 -2 c73 -3 87 12 87 94 0 45 -4 69 -12 71 -10 4 -13 -13 -13 -61 0 -55 -3 -67 -20 -76 -23 -12 -54 0 -64 26 -3 8 -6 38 -6 65 0 27 -4 49 -10 49 -6 0 -10 -34 -10 -83z"/>
<path d="M6480 3160 c0 -56 -3 -70 -15 -70 -8 0 -15 -7 -15 -15 0 -8 7 -15 15 -15 9 0 15 -9 15 -25 0 -14 5 -25 10 -25 6 0 10 11 10 25 0 18 5 25 20 25 11 0 20 5 20 11 0 6 -9 13 -20 16 -18 5 -20 14 -20 74 0 39 -4 69 -10 69 -6 0 -10 -30 -10 -70z"/>
<path d="M6637 3223 c-4 -3 -7 -53 -7 -110 l0 -103 55 0 c42 0 55 3 55 15 0 11 -11 15 -40 15 -38 0 -40 2 -40 30 0 28 2 30 40 30 29 0 40 4 40 15 0 11 -11 15 -40 15 l-40 0 0 50 c0 46 -7 60 -23 43z"/>
<path d="M6780 3147 l0 -84 30 -1 c20 0 30 4 30 14 0 8 -6 14 -14 14 -19 0 -26 22 -26 86 0 30 -4 54 -10 54 -6 0 -10 -34 -10 -83z"/>
<path d="M6872 3210 c-75 -71 8 -188 99 -140 13 7 19 7 19 0 0 -5 5 -10 10 -10 6 0 10 35 10 85 0 50 -4 85 -10 85 -5 0 -10 -5 -10 -10 0 -7 -6 -7 -19 0 -31 16 -75 12 -99 -10z m93 -25 c14 -13 25 -33 25 -45 0 -26 -34 -60 -60 -60 -28 0 -60 35 -60 65 0 28 32 65 55 65 9 0 27 -11 40 -25z"/>
<path d="M7040 3148 l0 -84 51 -2 c29 -1 58 3 66 10 10 8 17 8 25 0 18 -18 73 -14 91 6 19 21 25 152 7 152 -5 0 -10 -21 -10 -47 0 -90 -21 -118 -66 -88 -21 13 -24 23 -24 76 0 44 -3 60 -12 57 -8 -3 -14 -28 -16 -63 -4 -81 -24 -102 -68 -71 -15 11 -19 27 -19 72 0 37 -4 59 -12 61 -10 4 -13 -16 -13 -79z"/>
<path d="M7352 3223 c-18 -7 -42 -57 -42 -88 0 -68 106 -103 149 -49 12 15 21 35 21 45 0 17 -8 19 -71 19 -61 0 -70 2 -67 17 2 10 15 24 30 32 25 14 29 14 58 -7 42 -31 62 -23 28 11 -26 26 -71 34 -106 20z m98 -100 c0 -13 -34 -43 -49 -43 -20 0 -61 27 -61 41 0 5 25 9 55 9 30 0 55 -3 55 -7z"/>
<path d="M7535 3218 c-23 -61 -45 -134 -45 -145 0 -32 20 -8 38 45 l19 57 18 -58 c9 -33 22 -56 28 -54 6 2 19 28 28 58 l16 54 18 -57 c10 -32 25 -58 32 -58 17 0 17 1 -15 90 -15 41 -31 74 -37 73 -5 -1 -17 -25 -27 -55 -9 -30 -18 -47 -21 -38 -3 8 -11 32 -17 52 -13 41 -27 57 -35 36z"/>
<path d="M7742 3223 c-17 -7 -42 -57 -42 -86 0 -67 96 -102 145 -52 69 68 -11 175 -103 138z m78 -31 c27 -22 29 -65 5 -92 -22 -24 -43 -25 -73 -4 -28 19 -29 67 -2 94 25 25 41 25 70 2z"/>
<path d="M7890 3147 l0 -86 30 1 c31 1 41 22 15 31 -10 4 -15 25 -17 68 -2 39 -8 64 -15 67 -10 3 -13 -18 -13 -81z"/>
<path d="M7970 3120 c0 -67 4 -110 10 -110 6 0 10 27 10 62 l0 61 28 -36 c15 -20 33 -36 40 -37 17 0 15 7 -14 45 l-26 34 33 41 c45 55 26 65 -22 11 l-39 -44 0 42 c0 22 -4 41 -10 41 -6 0 -10 -43 -10 -110z"/>
<path d="M3370 3031 c0 -12 6 -21 16 -21 9 0 14 7 12 17 -5 25 -28 28 -28 4z"/>
</g>
<g id="layer105" fill="#fefefe" stroke="none">
<path d="M4806 3766 c-30 -29 -33 -52 -10 -84 13 -19 23 -22 65 -20 l49 3 0 55 c0 46 -3 56 -17 57 -10 1 -28 4 -40 8 -16 5 -29 0 -47 -19z m88 -29 c17 -47 -47 -90 -82 -55 -19 19 -14 65 9 82 28 19 61 7 73 -27z"/>
<path d="M5019 3772 c-25 -21 -30 -71 -9 -96 27 -33 110 -11 110 30 0 10 -14 14 -56 14 -46 0 -55 3 -52 16 2 9 12 23 23 30 17 11 25 11 48 -1 15 -7 27 -9 27 -4 0 9 -41 29 -60 29 -4 0 -18 -8 -31 -18z m81 -82 c-12 -23 -59 -27 -78 -8 -22 22 -13 28 38 28 48 0 50 -1 40 -20z"/>
<path d="M5665 3778 c-27 -15 -35 -28 -35 -60 0 -39 26 -60 69 -56 26 2 39 9 48 28 l12 25 -59 3 c-61 3 -74 14 -48 40 15 15 64 16 73 2 3 -5 12 -10 18 -10 7 1 1 10 -12 20 -26 23 -38 24 -66 8z m75 -76 c0 -34 -73 -44 -90 -12 -10 19 -8 20 40 20 27 0 50 -4 50 -8z"/>
<path d="M6040 3783 c-40 -14 -54 -78 -24 -108 25 -25 85 -16 101 15 l12 25 -59 3 c-61 3 -74 14 -48 40 15 15 64 16 73 2 3 -5 11 -10 18 -10 17 0 -14 27 -38 33 -11 3 -27 3 -35 0z m70 -81 c0 -16 -25 -32 -50 -32 -25 0 -50 16 -50 32 0 4 23 8 50 8 28 0 50 -4 50 -8z"/>
<path d="M4672 3703 l-2 -83 33 0 c38 0 57 15 57 45 0 29 -19 45 -51 45 -25 0 -28 4 -32 38 -2 20 -4 0 -5 -45z m71 -24 c16 -26 1 -49 -33 -49 -28 0 -30 3 -30 36 0 32 2 35 26 32 15 -2 32 -10 37 -19z"/>
<path d="M4942 3725 c-2 -55 0 -61 19 -62 19 -2 20 0 6 15 -9 9 -17 37 -20 62 -3 40 -4 38 -5 -15z"/>
<path d="M5152 3724 l-2 -60 39 -2 c49 -3 64 18 58 81 l-4 42 -1 -46 c-2 -53 -20 -74 -56 -65 -22 5 -25 13 -29 59 l-3 52 -2 -61z"/>
<path d="M5292 3728 c-1 -39 -6 -58 -14 -58 -9 0 -10 -2 -2 -8 7 -4 14 -16 17 -27 4 -19 5 -19 6 2 0 12 9 24 19 26 15 4 15 5 0 6 -13 1 -18 13 -21 59 l-3 57 -2 -57z"/>
<path d="M5442 3708 c-2 -71 -4 -77 -24 -81 -13 -2 -3 -4 22 -4 25 -1 37 1 28 4 -14 3 -18 19 -21 81 l-3 77 -2 -77z"/>
<path d="M5503 3700 c0 -47 2 -73 4 -59 4 23 8 26 46 25 l42 -1 1 60 1 60 -6 -55 c-5 -50 -8 -55 -32 -58 -34 -4 -47 13 -52 68 -2 25 -4 7 -4 -40z"/>
<path d="M5782 3725 l-2 -60 88 -2 c55 0 90 3 94 11 4 6 7 34 6 61 l-1 50 -6 -55 c-5 -49 -9 -55 -30 -58 -32 -5 -51 21 -53 72 -1 36 -2 35 -7 -14 -5 -50 -8 -55 -32 -58 -34 -4 -47 13 -52 68 -3 40 -4 38 -5 -15z"/>
<path d="M3192 3170 c0 -58 2 -100 4 -93 4 8 12 8 32 -3 38 -20 57 -18 88 10 72 61 -2 175 -86 132 l-29 -14 -4 37 c-2 20 -4 -11 -5 -69z m118 20 c40 -40 14 -110 -41 -110 -31 0 -69 30 -69 56 0 19 19 56 34 66 20 14 56 8 76 -12z"/>
<path d="M5650 3170 c0 -60 4 -100 10 -100 6 0 10 5 10 10 0 6 11 3 25 -6 49 -32 115 9 115 71 0 62 -66 103 -115 71 l-25 -16 0 35 c0 19 -4 35 -10 35 -6 0 -10 -40 -10 -100z m122 23 c22 -20 23 -70 1 -95 -36 -40 -103 -10 -103 45 0 58 60 88 102 50z"/>
<path d="M3034 3219 c-22 -11 -44 -48 -44 -74 0 -54 60 -97 105 -77 14 6 32 9 40 6 13 -5 15 6 15 69 0 71 -1 75 -22 75 -13 0 -34 3 -48 6 -14 3 -35 1 -46 -5z m78 -26 c22 -20 23 -70 1 -95 -36 -40 -103 -10 -103 45 0 58 60 88 102 50z"/>
<path d="M3474 3220 c-28 -11 -54 -48 -54 -78 0 -13 14 -37 30 -54 31 -30 50 -33 102 -13 14 5 17 -1 21 -32 2 -21 4 12 5 72 0 61 -2 104 -5 98 -3 -10 -11 -9 -33 2 -33 17 -36 17 -66 5z m75 -36 c12 -15 21 -32 21 -39 0 -7 -9 -24 -21 -39 -37 -46 -109 -25 -109 33 0 68 69 96 109 45z"/>
<path d="M4025 3221 c-29 -12 -44 -33 -51 -69 -5 -26 -1 -36 24 -62 17 -17 41 -30 55 -30 34 0 77 36 77 66 0 23 -3 24 -70 24 -75 0 -88 11 -52 43 24 22 66 22 87 1 9 -9 19 -13 22 -10 10 10 -19 34 -47 40 -14 3 -34 1 -45 -3z m85 -99 c0 -42 -66 -58 -102 -25 -34 31 -23 43 42 43 51 0 60 -3 60 -18z"/>
<path d="M4480 3217 c-32 -16 -52 -59 -44 -92 8 -31 49 -65 79 -65 31 0 72 34 77 65 5 25 5 25 -68 25 -41 0 -74 3 -74 8 0 4 7 18 16 30 18 26 59 29 92 6 28 -20 39 -13 15 9 -26 23 -65 29 -93 14z m94 -85 c12 -19 -25 -52 -59 -52 -31 0 -65 27 -65 52 0 11 117 10 124 0z"/>
<path d="M4929 3201 c-28 -29 -36 -61 -23 -96 8 -19 55 -45 84 -45 27 0 70 43 70 70 0 18 -6 20 -70 20 -75 0 -88 11 -52 43 23 21 65 22 82 2 14 -17 30 -20 30 -5 0 12 -53 40 -75 40 -9 0 -30 -13 -46 -29z m111 -75 c0 -41 -67 -61 -102 -29 -34 31 -23 43 42 43 45 0 60 -3 60 -14z"/>
<path d="M5273 3220 c-50 -20 -60 -105 -17 -139 15 -12 37 -21 50 -21 27 0 70 36 79 68 6 21 4 22 -69 22 -80 0 -89 7 -56 40 24 24 72 26 90 5 7 -8 18 -15 24 -15 6 0 -2 12 -17 25 -30 26 -48 29 -84 15z m97 -88 c0 -25 -34 -52 -65 -52 -34 0 -71 33 -59 52 7 10 124 11 124 0z"/>
<path d="M5489 3201 c-16 -16 -29 -39 -29 -50 0 -77 84 -118 135 -66 41 40 33 105 -16 130 -40 21 -57 19 -90 -14z m104 -22 c45 -61 -38 -133 -95 -82 -23 20 -23 71 -1 95 24 27 71 20 96 -13z"/>
<path d="M6140 3202 c-16 -17 -30 -40 -30 -51 0 -50 41 -91 91 -91 26 0 69 43 69 70 0 18 -6 20 -70 20 -75 0 -88 11 -52 43 24 22 60 22 84 0 10 -9 21 -13 25 -9 11 11 -20 35 -54 42 -27 5 -37 1 -63 -24z m110 -76 c0 -41 -67 -61 -102 -29 -34 31 -23 43 42 43 45 0 60 -3 60 -14z"/>
<path d="M6893 3220 c-42 -17 -57 -85 -28 -127 19 -27 75 -39 104 -24 14 8 21 8 21 1 0 -5 5 -10 10 -10 6 0 10 33 10 80 0 47 -4 80 -10 80 -5 0 -10 -5 -10 -11 0 -5 -10 -3 -22 5 -25 18 -42 19 -75 6z m79 -27 c39 -35 8 -113 -45 -113 -30 0 -59 32 -59 65 0 55 64 85 104 48z"/>
<path d="M7363 3220 c-50 -20 -60 -105 -17 -139 30 -24 52 -26 87 -10 23 10 47 46 47 69 0 6 -34 10 -75 10 -79 0 -88 7 -55 40 24 24 72 26 90 5 7 -8 18 -15 24 -15 6 0 -2 12 -17 25 -30 26 -48 29 -84 15z m97 -88 c0 -25 -34 -52 -65 -52 -34 0 -71 33 -59 52 7 10 124 11 124 0z"/>
<path d="M7753 3220 c-50 -20 -60 -105 -17 -139 37 -29 70 -26 106 9 25 26 29 36 24 63 -11 56 -64 87 -113 67z m81 -32 c34 -49 7 -108 -49 -108 -60 0 -84 70 -39 114 23 24 70 20 88 -6z"/>
<path d="M2830 3114 l0 -107 45 6 c25 2 55 13 65 22 26 24 25 69 -1 94 l-22 20 21 35 c32 54 7 43 -28 -11 l-29 -48 24 -3 c62 -8 47 -85 -18 -90 l-37 -3 0 95 c0 57 -4 96 -10 96 -6 0 -10 -42 -10 -106z"/>
<path d="M3383 3145 c0 -44 2 -61 4 -37 2 23 2 59 0 80 -2 20 -4 1 -4 -43z"/>
<path d="M3730 3125 c0 -88 -1 -95 -20 -95 -11 0 -20 -4 -20 -10 0 -5 23 -10 50 -10 28 0 50 5 50 10 0 6 -9 10 -20 10 -19 0 -20 7 -20 95 0 57 -4 95 -10 95 -6 0 -10 -38 -10 -95z"/>
<path d="M3810 3115 c0 -63 4 -105 10 -105 6 0 10 16 10 35 0 39 2 40 30 23 17 -11 25 -10 48 2 25 15 27 20 28 85 l1 70 -6 -60 c-8 -74 -14 -85 -51 -85 -37 0 -50 23 -50 89 0 28 -4 51 -10 51 -6 0 -10 -42 -10 -105z"/>
<path d="M4160 3145 c0 -55 3 -75 13 -74 6 1 24 -1 40 -5 18 -6 34 -4 50 7 19 13 26 13 54 -1 29 -14 34 -14 57 2 24 15 26 22 24 84 l-2 67 -3 -60 c-5 -66 -15 -85 -48 -85 -36 0 -55 31 -57 91 l-1 54 -6 -60 c-7 -73 -14 -85 -50 -85 -40 0 -51 17 -51 82 0 32 -4 58 -10 58 -6 0 -10 -32 -10 -75z"/>
<path d="M4710 3114 l0 -107 56 6 c90 9 135 73 104 148 -18 43 -47 59 -107 59 l-53 0 0 -106z m109 81 c33 -16 41 -33 41 -81 0 -50 -37 -84 -90 -84 l-40 0 0 90 0 90 30 0 c17 0 44 -7 59 -15z"/>
<path d="M5106 3150 c-31 -79 -28 -109 4 -36 11 26 20 52 20 56 0 5 4 11 9 14 5 3 19 -21 31 -54 12 -33 26 -60 31 -60 12 0 13 -2 -19 75 -15 38 -33 70 -38 72 -6 2 -23 -28 -38 -67z"/>
<path d="M5424 3115 c0 -60 1 -84 3 -52 2 32 2 81 0 110 -2 29 -3 3 -3 -58z"/>
<path d="M5840 3145 c0 -55 3 -75 13 -74 6 1 24 -1 40 -5 18 -6 34 -4 49 6 19 13 25 13 50 -1 25 -14 30 -14 55 -1 26 15 28 20 29 85 l1 70 -6 -60 c-8 -74 -14 -85 -51 -85 -37 0 -50 23 -51 92 l-2 53 -8 -64 c-8 -66 -18 -81 -54 -81 -34 0 -45 20 -45 82 0 32 -4 58 -10 58 -6 0 -10 -32 -10 -75z"/>
<path d="M6300 3146 c0 -65 2 -75 18 -75 9 0 29 -3 44 -6 19 -5 32 -1 47 14 17 17 21 32 20 84 l-2 62 -7 -61 c-8 -74 -14 -84 -49 -84 -40 0 -51 17 -51 82 0 32 -4 58 -10 58 -6 0 -10 -31 -10 -74z"/>
<path d="M6480 3151 c0 -58 -3 -70 -17 -74 -17 -4 -17 -5 0 -6 12 -1 17 -10 17 -31 0 -16 5 -30 10 -30 6 0 10 13 10 29 0 20 6 31 18 34 16 4 16 5 0 6 -15 1 -18 11 -18 71 0 40 -4 70 -10 70 -6 0 -10 -30 -10 -69z"/>
<path d="M6642 3118 l-2 -108 50 0 c28 0 50 5 50 10 0 6 -20 10 -45 10 l-45 0 0 40 0 40 45 0 c25 0 45 5 45 10 0 6 -20 10 -44 10 l-45 0 -4 48 c-2 26 -4 -1 -5 -60z"/>
<path d="M6780 3146 c0 -72 0 -73 25 -73 24 0 25 1 10 17 -10 11 -15 36 -15 73 0 31 -4 57 -10 57 -6 0 -10 -31 -10 -74z"/>
<path d="M7040 3142 l0 -78 47 -2 c31 -1 53 4 64 14 16 14 20 14 42 -1 35 -23 73 -11 86 27 14 39 14 118 1 118 -6 0 -10 -26 -10 -58 0 -62 -11 -82 -46 -82 -32 0 -48 26 -55 89 l-6 56 -2 -57 c-2 -82 -37 -112 -81 -68 -15 15 -20 33 -20 70 0 28 -4 50 -10 50 -6 0 -10 -33 -10 -78z"/>
<path d="M7517 3145 c-14 -41 -22 -75 -17 -75 5 0 17 25 26 55 10 30 21 52 25 50 4 -3 12 -27 19 -55 7 -27 16 -50 21 -50 5 0 16 25 25 56 18 62 25 61 44 -8 7 -27 17 -48 22 -48 6 0 8 6 6 13 -3 6 -13 37 -23 67 -9 30 -21 59 -25 64 -5 4 -16 -17 -26 -47 -9 -31 -20 -54 -24 -52 -4 3 -13 25 -20 50 -7 25 -16 48 -20 50 -5 3 -20 -29 -33 -70z"/>
<path d="M7902 3150 c-2 -75 -2 -76 25 -78 26 -2 26 -1 8 12 -15 11 -22 31 -26 78 l-6 63 -1 -75z"/>
<path d="M7970 3115 c0 -63 4 -105 10 -105 6 0 10 42 10 105 0 63 -4 105 -10 105 -6 0 -10 -42 -10 -105z"/>
<path d="M8028 3186 c-16 -19 -28 -40 -28 -46 0 -15 42 -70 53 -70 5 0 -2 16 -17 35 l-26 34 30 34 c16 19 30 37 30 41 0 15 -17 3 -42 -28z"/>
<path d="M3381 3024 c0 -11 3 -14 6 -6 3 7 2 16 -1 19 -3 4 -6 -2 -5 -13z"/>
<path d="M6331 2434 c-69 -23 -75 -24 -92 -8 -10 9 -25 14 -34 11 -12 -5 -15 -28 -15 -132 0 -112 2 -125 18 -125 11 0 25 19 40 54 28 63 82 130 123 151 15 8 51 15 79 15 44 0 56 -5 81 -29 24 -24 29 -38 29 -76 0 -64 -30 -92 -155 -140 -148 -57 -205 -122 -205 -235 1 -77 67 -164 147 -191 59 -20 150 -16 211 11 40 17 56 20 65 11 6 -6 21 -11 34 -11 23 0 23 1 23 121 0 117 -1 120 -21 117 -15 -2 -28 -20 -46 -63 -40 -99 -90 -145 -160 -145 -61 0 -103 40 -103 98 0 68 21 85 185 148 129 49 175 105 175 211 -1 107 -61 188 -164 218 -71 21 -130 18 -215 -11z"/>
<path d="M6945 2447 c-22 -8 -54 -21 -71 -30 -29 -15 -32 -15 -52 5 -12 12 -27 18 -36 15 -13 -5 -16 -27 -16 -132 0 -117 1 -125 19 -125 14 0 27 16 45 55 53 116 110 165 194 165 40 0 57 -6 81 -26 57 -47 50 -134 -13 -173 -17 -11 -69 -33 -115 -50 -46 -17 -99 -42 -118 -57 -79 -60 -98 -200 -38 -286 62 -87 196 -117 314 -69 38 15 57 19 65 11 5 -5 20 -10 33 -10 23 0 23 1 23 120 0 108 -2 120 -17 120 -12 0 -24 -16 -37 -48 -43 -110 -98 -162 -169 -162 -31 0 -46 7 -73 34 -38 38 -43 70 -19 115 15 31 53 51 175 96 166 62 225 200 142 335 -53 86 -208 133 -317 97z"/>
<path d="M4804 2426 c-8 -21 4 -36 27 -36 11 0 29 -5 40 -10 18 -10 19 -24 19 -289 0 -303 2 -295 -58 -307 -23 -5 -32 -12 -32 -26 0 -19 8 -19 238 -16 229 3 238 4 279 27 59 34 77 72 71 154 -3 57 -8 71 -33 98 -17 17 -47 40 -67 50 -21 11 -38 22 -38 25 0 7 34 55 138 196 52 72 70 89 100 97 42 12 110 0 123 -21 5 -7 9 -133 9 -280 0 -293 0 -292 -61 -305 -20 -4 -29 -12 -29 -24 0 -18 13 -19 280 -19 l281 0 -3 87 c-4 107 -19 118 -60 43 -39 -69 -64 -83 -164 -88 l-84 -5 0 137 0 136 54 0 c64 0 90 -18 109 -75 8 -22 21 -41 30 -43 15 -3 17 12 17 143 0 131 -2 146 -17 143 -9 -2 -22 -21 -30 -43 -19 -57 -45 -75 -109 -75 l-54 0 0 125 c0 114 2 127 21 146 19 19 30 21 105 17 99 -5 115 -16 159 -108 21 -43 34 -60 48 -60 19 0 19 5 12 103 -4 56 -9 105 -12 110 -5 9 -815 9 -828 -1 -6 -4 -33 -43 -60 -87 -75 -123 -149 -224 -163 -225 -10 0 -12 28 -10 123 l3 122 43 20 c27 12 41 25 40 35 -5 22 -326 28 -334 6z m371 -386 c33 -31 48 -82 42 -143 -3 -41 -11 -56 -35 -78 -30 -26 -101 -47 -122 -34 -10 6 -15 277 -5 287 12 12 97 -11 120 -32z"/>
<path d="M3960 2406 c0 -20 6 -25 45 -30 79 -12 75 7 75 -401 0 -408 4 -386 -76 -406 -37 -10 -44 -15 -44 -36 l0 -24 303 3 302 3 58 28 c78 39 108 84 114 175 14 196 -102 301 -353 318 l-94 7 0 131 c0 159 7 175 75 197 37 12 51 21 53 37 l3 22 -230 0 -231 0 0 -24z m473 -463 c18 -10 42 -38 55 -63 20 -38 23 -57 20 -125 -6 -132 -43 -176 -153 -183 l-65 -4 0 202 0 203 55 -6 c31 -3 70 -14 88 -24z"/>
</g>


</svg>